<!-- Created with Inkscape (http://www.inkscape.org/) -->
<svg width="30.854mm" height="30.854mm" version="1.1" viewBox="0 0 30.854 30.854" xmlns="http://www.w3.org/2000/svg">
 <g transform="translate(-52.897 -58.466)">
  <path transform="scale(.26458)" d="m268.57 221.45-17.322 2.8555-3.3984 9.3848a46.769 46.769 0 0 0-3.2422 0.85352l-5.0215-3.2344-1.3184-7.2812-13.572 11.135 1.7558 9.8574a46.769 46.769 0 0 0-2.248 2.2715l-6.0508-0.29493-4.7812-5.6465-6.1856 16.43 6.4316 7.6387a46.769 46.769 0 0 0-0.82617 3.2344l-5.4258 2.791-6.9648-2.5 2.8574 17.322 9.5293 3.4512a46.769 46.769 0 0 0 0.79688 3.0508l-3.3223 5.1602-7.2812 1.3164 11.135 13.572 9.9726-1.7754a46.769 46.769 0 0 0 2.2734 2.2559l-0.29492 6.0547-5.6465 4.7812 16.428 6.1875 7.6328-6.4258a46.769 46.769 0 0 0 3.7227 0.94922l2.7285 5.3047-2.5 6.9648 17.32-2.8574 3.4844-9.623a46.769 46.769 0 0 0 3.1152-0.86523l4.9922 3.2168 1.3164 7.2812 13.572-11.135-1.7793-9.9863a46.769 46.769 0 0 0 2.3672-2.4551l5.8691 0.28516 4.7812 5.6484 6.1875-16.43-6.5254-7.748a46.769 46.769 0 0 0 0.77148-3.0137l5.1953-2.6719 6.9648 2.5-2.8574-17.32-9.4297-3.4141a46.769 46.769 0 0 0-0.90235-3.3066l3.1504-4.8945 7.2812-1.3164-11.135-13.572-9.832 1.75a46.769 46.769 0 0 0-2.4277-2.3652l0.28711-5.916 5.6465-4.7812-16.428-6.1856-7.7109 6.4902a46.769 46.769 0 0 0-2.9297-0.74804l-2.707-5.2676zm-10.268 37.158a20.606 20.606 0 0 1 20.607 20.607 20.606 20.606 0 0 1-20.607 20.605 20.606 20.606 0 0 1-20.605-20.605 20.606 20.606 0 0 1 20.605-20.607z" fill="none" stroke="#000" stroke-linecap="round" stroke-linejoin="round" stroke-width=".95005"/>
 </g>
</svg>
