<?xml version="1.0" encoding="UTF-8" standalone="no"?>
<!-- Created with Inkscape (http://www.inkscape.org/) -->

<svg
   xmlns:dc="http://purl.org/dc/elements/1.1/"
   xmlns:cc="http://creativecommons.org/ns#"
   xmlns:rdf="http://www.w3.org/1999/02/22-rdf-syntax-ns#"
   xmlns:svg="http://www.w3.org/2000/svg"
   xmlns="http://www.w3.org/2000/svg"
   xmlns:sodipodi="http://sodipodi.sourceforge.net/DTD/sodipodi-0.dtd"
   xmlns:inkscape="http://www.inkscape.org/namespaces/inkscape"
   width="31.066206mm"
   height="31.160767mm"
   viewBox="0 0 31.066206 31.160767"
   version="1.1"
   id="svg8"
   sodipodi:docname="settings_logo.svg"
   inkscape:version="0.92.4 (5da689c313, 2019-01-14)">
  <defs
     id="defs2" />
  <sodipodi:namedview
     id="base"
     pagecolor="#ffffff"
     bordercolor="#666666"
     borderopacity="1.0"
     inkscape:pageopacity="0.0"
     inkscape:pageshadow="2"
     inkscape:zoom="3.959798"
     inkscape:cx="60.324771"
     inkscape:cy="59.674595"
     inkscape:document-units="mm"
     inkscape:current-layer="layer1"
     showgrid="false"
     inkscape:window-width="1920"
     inkscape:window-height="986"
     inkscape:window-x="-11"
     inkscape:window-y="-11"
     inkscape:window-maximized="1"
     fit-margin-top="0"
     fit-margin-left="0"
     fit-margin-right="0"
     fit-margin-bottom="0" />
  <metadata
     id="metadata5">
    <rdf:RDF>
      <cc:Work
         rdf:about="">
        <dc:format>image/svg+xml</dc:format>
        <dc:type
           rdf:resource="http://purl.org/dc/dcmitype/StillImage" />
        <dc:title></dc:title>
      </cc:Work>
    </rdf:RDF>
  </metadata>
  <g
     inkscape:label="Layer 1"
     inkscape:groupmode="layer"
     id="layer1"
     transform="translate(-11.991314,-3.8931077)">
    <path
       style="fill:none;fill-rule:evenodd;stroke:#000000;stroke-width:0.99999994"
       d="m 114.15625,15.417969 -17.431641,4.570312 -3.255859,9.91211 a 45.084678,45.084678 0 0 0 -13.890625,5.914062 l -5.525391,-3.457031 -4.003906,-7.058594 -9.09375,15.556641 4.642578,9.185547 A 45.084678,45.084678 0 0 0 59.996094,63.861328 L 53.847656,65.277344 46.025391,63.117188 50.595703,80.546875 60,83.636719 a 45.084678,45.084678 0 0 0 5.964844,14.279297 l -3.304688,5.283204 -7.058594,4.0039 15.556641,9.09376 8.791016,-4.44532 a 45.084678,45.084678 0 0 0 15.060547,5.99414 l 1.410156,6.11524 -2.160156,7.82226 17.429684,-4.57031 3.23438,-9.84375 a 45.084678,45.084678 0 0 0 13.95508,-6.14258 l 5.3789,3.36524 4.00391,7.05859 9.09375,-15.55664 -4.72461,-9.351562 a 45.084678,45.084678 0 0 0 5.11328,-12.613282 l 6.4668,-1.490234 7.82226,2.160156 L 157.46289,67.369141 148,64.259766 a 45.084678,45.084678 0 0 0 -5.6543,-14.064454 l 3.55664,-5.6875 7.06055,-4.003906 -15.55859,-9.09375 -8.90235,4.5 a 45.084678,45.084678 0 0 0 -15.02148,-6.216797 l -1.48438,-6.453125 z m 24.05859,14.601562 0.20118,0.002 c -0.0675,3.61e-4 -0.13365,-0.001 -0.20118,-0.002 z M 103.9375,35.601562 A 37.028096,38.099523 0 0 1 140.96484,73.701172 37.028096,38.099523 0 0 1 103.9375,111.80078 37.028096,38.099523 0 0 1 66.908203,73.701172 37.028096,38.099523 0 0 1 103.9375,35.601562 Z m 0,27.646485 A 10.453338,10.453336 0 0 0 93.484375,73.701172 10.453338,10.453336 0 0 0 103.9375,84.154297 10.453338,10.453336 0 0 0 114.39062,73.701172 10.453338,10.453336 0 0 0 103.9375,63.248047 Z"
       transform="scale(0.26458333)"
       id="path883"
       inkscape:connector-curvature="0" />
  </g>
</svg>
