<!-- Created with Inkscape (http://www.inkscape.org/) -->
<svg width="31.066mm" height="31.161mm" version="1.1" viewBox="0 0 31.066 31.161" xmlns="http://www.w3.org/2000/svg">
 <g transform="translate(-11.991 -3.8931)">
  <path id="saw_blade" d="m22.42 4.7051-3.451 3.29 0.51518 2.7119a11.929 11.929 0 0 0-2.4591 3.1478l-1.722-0.09303-1.8308-1.1217-0.11387 4.7663 2.251 1.5325a11.929 11.929 0 0 0 0.47242 3.9172l-1.2423 1.1151-2.0878 0.50132 3.2898 3.4506 2.5731-0.48861a11.929 11.929 0 0 0 3.2093 2.5426l-0.08876 1.6464-1.1217 1.8308 4.7663 0.11387 1.4664-2.1548a11.929 11.929 0 0 0 4.2546-0.54031l1.1095 1.2354 0.50132 2.0878 3.4506-3.2898-0.51141-2.6934a11.929 11.929 0 0 0 2.4448-3.209l1.6763 0.09053 1.8308 1.1217 0.11387-4.7663-2.2912-1.5604a11.929 11.929 0 0 0-0.43094-3.5752l1.3066-1.173 2.0878-0.50132-3.2898-3.4506-2.5892 0.49159a11.929 11.929 0 0 0-3.1099-2.5326l0.09534-1.7723 1.1222-1.831-4.7668-0.11362-1.4851 2.1817a11.929 11.929 0 0 0-4.2741 0.48376l-1.1699-1.3041zm7.4401 0.30065 0.04684-0.025294c-0.01558 0.00873-0.03107 0.01688-0.04684 0.025294zm-7.222 5.681a10.08 9.797 61.06 0 1 13.451 4.0811 10.08 9.797 61.06 0 1-3.6955 13.562 10.08 9.797 61.06 0 1-13.452-4.0808 10.08 9.797 61.06 0 1 3.696-13.563zm3.5396 6.4014a2.7658 2.7658 61.06 0 0-1.082 3.7587 2.7658 2.7658 61.06 0 0 3.7587 1.082 2.7658 2.7658 61.06 0 0 1.082-3.7587 2.7658 2.7658 61.06 0 0-3.7587-1.082z" fill="none" stroke="#000" stroke-width=".26458"/>
 </g>
</svg>
